<svg width="1800" height="42" viewBox="0 0 1800 42" fill="none" xmlns="http://www.w3.org/2000/svg">
<path d="M-53 14.8925C-53 14.8925 -4.57147 21.4942 39.8768 21.9548C84.9879 22.4154 123.466 21.9548 178.528 19.6519C253.493 16.5813 398.116 4.14531 475.071 10.9007C552.027 17.656 555.343 17.963 594.485 22.2619C638.269 27.1748 727.166 37.0007 837.29 36.5402C954.713 36.0796 1167.66 11.0542 1255.23 12.2824C1264.52 12.436 1299.02 13.5106 1324.89 15.353C1350.11 17.1954 1387.25 21.1871 1437.68 22.569C1458.9 23.183 1492.74 24.2578 1531.88 23.9507C1541.83 23.7972 1573.68 23.3366 1611.49 21.4942C1649.3 19.6519 1684.46 16.7348 1716.3 15.8136C1784.63 14.1248 1827.76 16.5813 1827.76 16.5813V0H-53V14.8925ZM97.5932 17.3489C102.238 15.8136 110.861 16.7348 126.12 16.7348C141.378 16.7348 166.588 14.8925 164.597 15.0459C162.607 15.1995 144.031 17.3489 124.793 17.963C104.891 18.7307 93.6133 18.8843 97.5932 17.3489ZM219.659 13.2036C219.659 13.2036 235.581 12.8966 256.811 11.8218C278.039 10.5936 325.142 7.52298 356.985 6.44827C411.384 4.75944 461.803 6.44827 457.159 6.6018C451.852 6.75533 393.473 5.68061 340.4 8.29063C318.508 9.36535 278.703 11.6683 258.138 12.436C236.245 13.3571 219.659 13.2036 219.659 13.2036ZM599.128 13.05C587.85 11.9754 687.361 20.266 721.858 22.4154C735.79 23.3366 762.989 24.872 788.198 25.486C814.071 26.1002 847.242 26.1002 846.578 26.2537C846.578 26.5608 808.101 27.4819 772.277 26.2537C736.454 25.0254 737.779 24.5649 721.858 23.7972C696.648 22.569 610.406 14.1248 599.128 13.05ZM506.915 10.5936C505.588 10.5936 512.221 9.97947 538.758 12.2824C565.294 14.5854 583.206 17.656 584.533 17.963C585.86 18.1166 561.314 15.1995 540.748 13.3571C520.846 11.5147 507.578 10.5936 506.915 10.5936ZM-49.683 9.21182C-49.0196 9.36535 -37.0784 10.9007 -17.8397 13.05C1.39919 15.1995 27.9355 17.3489 26.6086 17.1954C25.282 17.1954 3.38956 16.2742 -22.4833 13.3571C-48.3561 10.4401 -50.3464 9.05829 -49.683 9.21182ZM1620.11 17.8095C1619.44 17.5024 1632.71 17.5024 1649.96 15.9671C1667.21 14.4319 1685.79 13.5106 1701.71 12.8966C1728.24 11.6683 1779.33 13.05 1776.67 13.2036C1774.69 13.3571 1722.28 12.7431 1693.75 14.2783C1679.16 15.0459 1677.83 15.0459 1655.94 16.7348C1634.04 18.4237 1620.77 18.2701 1620.11 17.8095ZM1343.47 14.1248C1340.82 13.9713 1320.25 11.6683 1287.74 10.133C1255.23 8.44417 1228.7 9.36535 1228.7 8.90475C1228.7 8.44417 1235.34 7.52298 1269.83 8.44417C1304.33 9.36535 1346.13 14.2783 1343.47 14.1248ZM1352.76 10.2865C1351.43 10.4401 1330.2 8.29063 1314.95 7.67651C1299.68 7.21592 1302.34 6.90886 1302.34 6.75533C1302.34 6.6018 1309.64 6.44827 1320.25 7.0624C1331.53 7.83005 1354.09 10.133 1352.76 10.2865ZM1206.8 6.75533C1206.15 7.0624 1183.59 7.98357 1169.66 9.51887C1155.73 11.0542 1157.72 10.4401 1157.06 10.2865C1156.39 10.133 1162.35 9.05828 1172.97 8.29063C1183.59 7.36945 1207.47 6.44827 1206.8 6.75533ZM1393.89 17.0418C1394.56 17.5024 1391.9 17.8095 1381.29 16.7348C1370.67 15.6601 1364.03 14.7389 1366.69 14.8925C1369.34 15.0459 1372.65 15.5065 1383.27 16.1207C1394.56 16.7348 1393.23 16.5813 1393.89 17.0418ZM1598.88 19.0377C1600.21 19.0377 1584.95 20.266 1576.99 20.4195C1569.03 20.5731 1563.72 20.5731 1563.72 20.1125C1563.72 19.6519 1564.39 19.3448 1574.33 19.4983C1584.95 19.6519 1597.55 19.0377 1598.88 19.0377ZM818.052 32.3949C818.716 32.5485 833.974 31.9343 867.808 31.9343C900.978 31.9343 958.031 28.2496 981.913 26.5608C1005.79 24.8718 915.573 32.5484 872.451 32.8554C829.329 33.1625 817.389 32.2414 818.052 32.3949Z" fill="#213555"/>
<path d="M39.2131 27.6357C39.8766 27.4822 69.7296 28.0963 86.9782 27.6357C135.407 26.5609 199.758 22.7227 197.104 23.1833C194.45 23.6439 106.217 27.9428 84.3253 28.2499C51.8175 28.8639 38.5497 27.6357 39.2131 27.6357Z" fill="#3E5879"/>
<path d="M319.17 15.0457C320.497 14.8922 349.024 13.5104 382.194 13.2033C415.364 12.8963 466.447 14.1245 463.793 13.971C461.802 13.8175 424.652 11.2074 375.56 12.1286C326.468 13.0498 317.844 15.1992 319.17 15.0457Z" fill="#3E5879"/>
<path d="M471.09 20.5728C471.754 20.4192 457.823 19.0375 449.862 18.884C441.901 18.7304 436.593 18.884 436.593 19.3446C436.593 19.8052 437.257 20.1123 447.208 19.9587C458.486 19.8052 470.427 20.7263 471.09 20.5728Z" fill="#3E5879"/>
<path d="M494.311 16.2742C494.311 16.1206 523.5 18.1165 536.105 19.6519C548.709 21.0336 577.236 24.4113 576.573 24.4113C575.909 24.5648 548.709 21.9548 534.778 20.4195C520.846 18.8842 494.311 16.4277 494.311 16.2742Z" fill="#3E5879"/>
<path d="M802.794 40.9924C803.457 40.8389 833.31 41.453 850.559 40.9924C898.988 39.9176 963.338 36.0794 960.685 36.54C958.031 37.0006 869.798 41.2995 847.905 41.6066C815.398 42.2206 802.131 41.1459 802.794 40.9924Z" fill="#3E5879"/>
<path d="M1549.79 29.6312C1549.79 29.6312 1541.83 29.1706 1530.55 29.4777C1519.27 29.7848 1492.07 30.8594 1476.15 30.5525C1448.29 29.9383 1427.06 26.4071 1429.71 26.5606C1432.37 26.5606 1458.24 29.9383 1486.76 29.4777C1498.71 29.3242 1520.6 28.71 1531.21 28.8635C1541.83 29.0171 1549.79 29.6312 1549.79 29.6312Z" fill="#3E5879"/>
<path d="M1326.89 19.3449C1325.56 19.4984 1313.62 18.1166 1298.35 17.656C1283.1 17.349 1284.43 17.1954 1284.43 16.8884C1284.43 16.7348 1296.37 16.2742 1306.99 16.8884C1317.6 17.656 1328.21 19.1913 1326.89 19.3449Z" fill="#3E5879"/>
<path d="M1724.26 20.2661C1724.26 20.1126 1695.74 20.2661 1679.81 21.0338C1663.89 21.8015 1646.65 23.9508 1646.65 24.1044C1646.65 24.2579 1664.56 22.8762 1680.48 21.9549C1695.74 21.0338 1723.6 20.4197 1724.26 20.2661Z" fill="#3E5879"/>
</svg>
